<svg width="207" height="257" viewBox="0 0 207 257" fill="none" xmlns="http://www.w3.org/2000/svg">
<path fill-rule="evenodd" clip-rule="evenodd" d="M149.82 14.6547C140.644 6.13243 131.693 -2.18137 120.646 0.51823C109.839 3.15923 104.973 13.8929 99.9892 24.8859C95.8562 34 91.6432 43.2924 83.8972 48.2989C77.2522 52.5942 68.5647 51.9014 60.0059 51.2188C50.3788 50.451 40.914 49.6962 34.6992 56.0677C28.2397 62.6901 29.3042 72.3369 30.3966 82.2373C31.2194 89.6933 32.058 97.2933 29.7104 103.852C27.0464 111.296 20.9092 117.643 14.9002 123.857C6.42503 132.621 -1.79527 141.122 0.343126 152.066C2.71593 164.209 13.0388 166.103 24.3583 168.179C33.9292 169.935 44.2126 171.821 51.0055 180.144C56.8485 187.303 57.5851 195.399 58.3828 204.167C59.2441 213.634 60.1766 223.883 67.6863 234.58C78.8022 250.413 101.303 256.814 120.646 256.481C155.983 255.872 183.503 231.477 209.722 197.977C235.941 164.477 240.435 134.477 231.656 99.2703C220.883 56.0677 207.722 46.9773 167.198 27.9419C160.983 25.0225 155.36 19.8006 149.82 14.6547ZM75.4602 19.0992C75.4602 28.8317 69.5012 36.7214 62.1496 36.7214C54.7985 36.7214 48.8393 28.8317 48.8393 19.0992C48.8393 9.36673 54.7985 1.47703 62.1496 1.47703C69.5012 1.47703 75.4602 9.36673 75.4602 19.0992Z" fill="#333350"/>
</svg>
