<svg width="414" height="417" viewBox="0 0 414 417" fill="none" xmlns="http://www.w3.org/2000/svg">
<path fill-rule="evenodd" clip-rule="evenodd" d="M117.954 0.428884C192.159 6.81232 191.614 69.0075 251.643 92.3938C296.282 109.784 396.738 86.9907 411.56 114.812C430.522 150.41 333.128 157.328 320.308 202.553C313.966 224.92 371.182 234.73 371.182 265.874C371.182 297.018 274.504 342.69 237.661 363.785C165.435 405.136 87.2688 417 21.6241 417C-44.0207 417 -123.072 386.606 -123.072 345.236C-123.072 303.866 -60.0337 286.434 -58.4494 256.344C-57.3958 236.307 -113.042 226.568 -123.072 207.203C-134.806 184.548 -133.328 160.155 -119.874 137.754C-95.8383 97.7408 25.2969 -7.54213 117.954 0.428884Z" fill="#FF360C"/>
</svg>
